<?xml version="1.0" encoding="UTF-8"?>
<svg version="1.1" xmlns="http://www.w3.org/2000/svg" width="256" height="256">
<path d="M0 0 C1.11696762 0.00222061 2.23393524 0.00444122 3.38475037 0.00672913 C4.64598221 0.00680466 5.90721405 0.00688019 7.20666504 0.00695801 C8.59341979 0.01206542 9.98017414 0.01728142 11.3669281 0.02259827 C12.77797394 0.0244625 14.18902042 0.02588638 15.60006714 0.02688599 C19.3204272 0.03071072 23.04074845 0.04054062 26.76109314 0.05158997 C30.55482966 0.06180504 34.34857243 0.06638381 38.14231873 0.07142639 C45.59090416 0.08216294 53.03945758 0.09923882 60.48802185 0.12025452 C59.29449937 3.17791643 58.15657377 5.85612725 56.23020935 8.51869202 C55.77790955 9.15073547 55.32560974 9.78277893 54.85960388 10.43397522 C54.36573181 11.11419739 53.87185974 11.79441956 53.36302185 12.49525452 C52.27358252 14.01674758 51.18509146 15.53891994 50.09739685 17.06166077 C49.51409607 17.8765094 48.93079529 18.69135803 48.32981873 19.53089905 C45.05266983 24.13819507 41.83564668 28.78723844 38.61302185 33.43275452 C32.76481448 41.85386408 26.89794813 50.26150772 21.00413513 58.65077209 C20.19951843 59.79775574 20.19951843 59.79775574 19.37864685 60.96791077 C18.91490662 61.62799133 18.45116638 62.2880719 17.97337341 62.96815491 C16.11293003 65.66371842 14.30480787 68.39507549 12.48802185 71.12025452 C24.03802185 71.12025452 35.58802185 71.12025452 47.48802185 71.12025452 C46.40922006 75.43546168 45.41031782 76.60174727 42.42552185 79.74525452 C38.633906 83.8354228 35.10865384 88.03330189 31.65989685 92.41322327 C28.69279763 96.11142428 25.6157863 99.71246827 22.51976013 103.30311584 C18.96189211 107.4614152 15.79360372 111.71281203 12.48802185 116.12025452 C21.72802185 116.12025452 30.96802185 116.12025452 40.48802185 116.12025452 C36.20666501 124.68296819 29.06323646 131.66562556 22.57395935 138.64002991 C19.60194067 141.85161068 16.78902682 145.1457655 14.05052185 148.55775452 C10.20756706 153.33566789 6.11970856 157.81020436 1.93186951 162.28187561 C-1.99104669 166.49454557 -5.63108839 170.88439006 -9.2346344 175.37416077 C-11.73024284 178.38344504 -14.34962958 181.25964106 -17.01197815 184.12025452 C-21.27051815 188.6963656 -25.25132936 193.42901227 -29.16822815 198.30384827 C-32.30448613 202.07258493 -35.6164441 205.66288155 -38.97096252 209.23744202 C-41.54308154 211.95954152 -41.54308154 211.95954152 -43.51197815 215.12025452 C-44.50197815 214.79025452 -45.49197815 214.46025452 -46.51197815 214.12025452 C-39.25197815 191.68025452 -31.99197815 169.24025452 -24.51197815 146.12025452 C-35.44733736 147.79493569 -35.44733736 147.79493569 -46.32447815 149.74525452 C-47.38118713 149.94634827 -47.38118713 149.94634827 -48.45924377 150.15150452 C-50.14387729 150.47238709 -51.82799134 150.79599518 -53.51197815 151.12025452 C-52.17642452 146.798799 -50.5038923 142.90660866 -48.4221344 138.89369202 C-47.97106323 138.0209539 -47.97106323 138.0209539 -47.51087952 137.13058472 C-46.53673371 135.24968183 -45.55592816 133.37235499 -44.57447815 131.49525452 C-43.90047036 130.19883751 -43.22656155 128.90236904 -42.55274963 127.60585022 C-37.03728259 117.01953208 -31.34407204 106.53557396 -25.51197815 96.12025452 C-27.12266174 96.33681702 -27.12266174 96.33681702 -28.7658844 96.55775452 C-30.20205171 96.74548881 -31.63825139 96.93297561 -33.07447815 97.12025452 C-33.77895081 97.21564514 -34.48342346 97.31103577 -35.20924377 97.40931702 C-39.6856567 97.98691868 -43.99859053 98.21514834 -48.51197815 98.12025452 C-46.22298031 90.31528818 -42.78546778 83.20384169 -39.1915741 75.94013977 C-37.3755285 72.26810893 -35.57882417 68.58663681 -33.7815094 64.90541077 C-33.41802902 64.16172241 -33.05454865 63.41803406 -32.68005371 62.65180969 C-29.30244987 55.72495182 -26.04757558 48.74543484 -22.82447815 41.74525452 C-18.37865917 32.10407122 -13.86142073 22.50134768 -9.26197815 12.93275452 C-8.70034973 11.76115784 -8.13872131 10.58956116 -7.56007385 9.38246155 C-7.04404602 8.31237854 -6.52801819 7.24229553 -5.99635315 6.13978577 C-5.53970276 5.19208313 -5.08305237 4.24438049 -4.61256409 3.26795959 C-3.01179222 0.14418183 -3.01179222 0.14418183 0 0 Z " fill="#FBC90A" transform="translate(124.51197814941406,19.879745483398438)"/>
<path d="M0 0 C16.5 0 33 0 50 0 C47.75152298 5.62119254 47.75152298 5.62119254 45.7421875 8.3984375 C45.2898877 9.03048096 44.83758789 9.66252441 44.37158203 10.3137207 C43.87770996 10.99394287 43.38383789 11.67416504 42.875 12.375 C41.78556067 13.89649306 40.69706961 15.41866542 39.609375 16.94140625 C39.02607422 17.75625488 38.44277344 18.57110352 37.84179688 19.41064453 C34.56464798 24.01794056 31.34762483 28.66698393 28.125 33.3125 C22.27679263 41.73360956 16.40992628 50.1412532 10.51611328 58.53051758 C9.71149658 59.67750122 9.71149658 59.67750122 8.890625 60.84765625 C8.42688477 61.50773682 7.96314453 62.16781738 7.48535156 62.84790039 C5.62490818 65.5434639 3.81678602 68.27482097 2 71 C13.55 71 25.1 71 37 71 C35.92119821 75.31520716 34.92229597 76.48149275 31.9375 79.625 C28.14588415 83.71516828 24.62063199 87.91304737 21.171875 92.29296875 C18.20477578 95.99116976 15.12776445 99.59221375 12.03173828 103.18286133 C8.47387026 107.34116068 5.30558186 111.59255751 2 116 C11.24 116 20.48 116 30 116 C25.71864316 124.56271368 18.5752146 131.54537104 12.0859375 138.51977539 C9.11391882 141.73135616 6.30100497 145.02551099 3.5625 148.4375 C-0.28045479 153.21541338 -4.36831329 157.68994984 -8.55615234 162.16162109 C-12.47906854 166.37429105 -16.11911024 170.76413555 -19.72265625 175.25390625 C-22.21826469 178.26319052 -24.83765143 181.13938654 -27.5 184 C-31.75854 188.57611109 -35.73935121 193.30875776 -39.65625 198.18359375 C-42.79250798 201.95233042 -46.10446595 205.54262704 -49.45898438 209.1171875 C-52.03110339 211.839287 -52.03110339 211.839287 -54 215 C-54.99 214.67 -55.98 214.34 -57 214 C-56.525625 213.236875 -56.05125 212.47375 -55.5625 211.6875 C-53.89893903 209.03589452 -53.89893903 209.03589452 -53 206 C-51.67029533 205.32612485 -50.33656349 204.66016684 -49 204 C-47.49887217 202.33170593 -47.49887217 202.33170593 -46.22265625 200.31640625 C-45.71581299 199.56319092 -45.20896973 198.80997559 -44.68676758 198.03393555 C-44.15075928 197.21836182 -43.61475098 196.40278809 -43.0625 195.5625 C-41.90123582 193.83059897 -40.7397718 192.09883192 -39.578125 190.3671875 C-38.98580078 189.47741211 -38.39347656 188.58763672 -37.78320312 187.67089844 C-34.99081066 183.4884267 -32.15335588 179.33714555 -29.3125 175.1875 C-28.49869873 173.9967688 -28.49869873 173.9967688 -27.66845703 172.78198242 C-23.30699989 166.41399106 -18.84042012 160.1270475 -14.3359375 153.85986328 C-11.6949755 150.18317312 -9.06239477 146.50067781 -6.4375 142.8125 C-5.91212646 142.0807959 -5.38675293 141.3490918 -4.84545898 140.59521484 C-4.35891846 139.91023926 -3.87237793 139.22526367 -3.37109375 138.51953125 C-2.93724365 137.91214111 -2.50339355 137.30475098 -2.05639648 136.67895508 C-0.82386789 134.86755195 -0.82386789 134.86755195 0 132 C-0.89138672 132.13631836 -0.89138672 132.13631836 -1.80078125 132.27539062 C-4.53297048 132.68968059 -7.26643484 133.09489221 -10 133.5 C-10.93457031 133.64308594 -11.86914062 133.78617188 -12.83203125 133.93359375 C-18.28940391 134.7350261 -23.48470461 135.15609327 -29 135 C-27.41495425 130.39086105 -24.95230966 126.6788437 -22.23828125 122.6796875 C-21.76939987 121.98038116 -21.30051849 121.28107483 -20.81742859 120.56057739 C-19.32013958 118.3290888 -17.81663318 116.10187967 -16.3125 113.875 C-14.3482789 110.95705861 -12.38661842 108.03740369 -10.42578125 105.1171875 C-9.95455841 104.41623962 -9.48333557 103.71529175 -8.99783325 102.99310303 C-5.23751114 97.3869247 -1.57891107 91.72409941 2 86 C0.865625 86.165 -0.26875 86.33 -1.4375 86.5 C-8.92138718 87.35427008 -16.48015007 87.07770224 -24 87 C-22.41820404 82.77198912 -20.40806473 78.82452433 -18.2890625 74.84765625 C-17.92490234 74.15967453 -17.56074219 73.47169281 -17.18554688 72.76286316 C-16.00141749 70.52795385 -14.81340207 68.29513987 -13.625 66.0625 C-12.8025153 64.51337625 -11.98008727 62.96422241 -11.15771484 61.41503906 C-4.85895011 49.5620235 1.53278038 37.76194299 8 26 C10.23213137 21.93911859 12.46069459 17.87630385 14.6875 13.8125 C15.20554199 12.87245117 15.72358398 11.93240234 16.25732422 10.96386719 C16.73314941 10.09536133 17.20897461 9.22685547 17.69921875 8.33203125 C18.12033936 7.56608643 18.54145996 6.8001416 18.9753418 6.01098633 C20.1203221 3.88726021 20.1203221 3.88726021 21 1 C14.07 1 7.14 1 0 1 C0 0.67 0 0.34 0 0 Z " fill="#F4B220" transform="translate(135,20)"/>
<path d="M0 0 C1.4540625 0.0309375 1.4540625 0.0309375 2.9375 0.0625 C1.693833 4.03236057 0.24635961 7.65843071 -1.6796875 11.34375 C-2.19797119 12.33906738 -2.71625488 13.33438477 -3.25024414 14.35986328 C-4.08543579 15.94516846 -4.08543579 15.94516846 -4.9375 17.5625 C-5.51685303 18.66964355 -6.09620605 19.77678711 -6.69311523 20.91748047 C-10.91148593 28.95034141 -15.2323977 36.92392005 -19.60205078 44.87524414 C-24.28966793 53.42384321 -28.78967444 62.06600502 -33.28125 70.71875 C-36.81854807 77.53024133 -40.43074016 84.30101772 -44.0625 91.0625 C-44.7225 91.0625 -45.3825 91.0625 -46.0625 91.0625 C-44.75414011 86.89386947 -43.18566371 83.03797555 -41.26171875 79.1171875 C-40.42435181 77.39991455 -40.42435181 77.39991455 -39.57006836 75.64794922 C-39.27389618 75.04432556 -38.977724 74.4407019 -38.6725769 73.81878662 C-37.07992451 70.57110545 -35.50039505 67.31706862 -33.921875 64.0625 C-33.59791245 63.39475555 -33.27394989 62.72701111 -32.94017029 62.03903198 C-29.71503659 55.37445058 -26.59987508 48.66127327 -23.5 41.9375 C-19.01077387 32.21395658 -14.45188966 22.52755599 -9.8125 12.875 C-9.25103271 11.70372559 -8.68956543 10.53245117 -8.11108398 9.32568359 C-7.59489502 8.25527832 -7.07870605 7.18487305 -6.546875 6.08203125 C-6.09022461 5.13432861 -5.63357422 4.18662598 -5.16308594 3.21020508 C-3.55520534 0.07255521 -3.55520534 0.07255521 0 0 Z " fill="#FEEA10" transform="translate(125.0625,19.9375)"/>
<path d="M0 0 C-0.64980298 3.94691785 -1.85177292 7.34264972 -3.40625 11.0234375 C-3.89859131 12.19841797 -4.39093262 13.37339844 -4.89819336 14.58398438 C-5.15954071 15.20233154 -5.42088806 15.82067871 -5.69015503 16.45776367 C-7.06591207 19.71474676 -8.4255739 22.97842629 -9.78515625 26.2421875 C-10.05896622 26.89890442 -10.33277618 27.55562134 -10.61488342 28.23223877 C-13.134399 34.29086489 -15.55702985 40.38540858 -17.9375 46.5 C-18.30174072 47.43392578 -18.66598145 48.36785156 -19.04125977 49.33007812 C-20.58439768 53.30193112 -22.11071006 57.27873634 -23.59375 61.2734375 C-24.0371875 62.46195313 -24.480625 63.65046875 -24.9375 64.875 C-25.29714844 65.86242187 -25.65679687 66.84984375 -26.02734375 67.8671875 C-27 70 -27 70 -29 71 C-26.99588283 62.49405976 -24.56785893 54.20227388 -21.83984375 45.90234375 C-21.44930313 44.70565567 -21.05876251 43.50896759 -20.65638733 42.27601624 C-19.62957581 39.13462161 -18.59869637 35.99459767 -17.56646729 32.85498047 C-16.723158 30.28405329 -15.8864026 27.71101197 -15.04955196 25.13797665 C-14.04655161 22.05798965 -13.03663177 18.98027499 -12.02734375 15.90234375 C-11.65334946 14.7524144 -11.27935516 13.60248505 -10.89402771 12.41770935 C-10.54348831 11.35552689 -10.19294891 10.29334442 -9.83178711 9.19897461 C-9.52550888 8.26476181 -9.21923065 7.33054901 -8.90367126 6.36802673 C-8 4 -8 4 -6 1 C-3 0 -3 0 0 0 Z " fill="#FDE022" transform="translate(108,162)"/>
<path d="M0 0 C-1.27687355 3.45003368 -2.75565971 6.36660026 -4.82568359 9.40380859 C-5.67699356 10.66068985 -5.67699356 10.66068985 -6.54550171 11.94296265 C-7.15697052 12.83576935 -7.76843933 13.72857605 -8.3984375 14.6484375 C-9.02980621 15.57919098 -9.66117493 16.50994446 -10.31167603 17.46890259 C-12.32832066 20.44066399 -14.35120025 23.40810764 -16.375 26.375 C-18.39090078 29.335252 -20.40538507 32.29644038 -22.41690063 35.25967407 C-23.66740446 37.10135481 -24.92051328 38.94127029 -26.17660522 40.77914429 C-29.33221364 45.42159524 -32.29538309 50.08031602 -35 55 C-35.66 54.67 -36.32 54.34 -37 54 C-21.53440609 23.78651377 -21.53440609 23.78651377 -14.625 11.1875 C-13.95730591 9.96401855 -13.95730591 9.96401855 -13.27612305 8.71582031 C-12.86789307 7.9781543 -12.45966309 7.24048828 -12.0390625 6.48046875 C-11.51626709 5.53530396 -11.51626709 5.53530396 -10.98291016 4.57104492 C-9.43934335 2.10386847 -8.40589181 1.10407482 -5.5625 0.375 C-3 0 -3 0 0 0 Z " fill="#FDE419" transform="translate(109,113)"/>
</svg>
